<svg id="emoji_transportation-24px" xmlns="http://www.w3.org/2000/svg" width="24" height="24" viewBox="0 0 24 24">
    <defs>
        <style>
            .cls-1{fill:none}.cls-2{stroke:#000;stroke-width:.5px}
        </style>
    </defs>
    <g id="Group_6106" data-name="Group 6106">
        <path id="Rectangle_2471" data-name="Rectangle 2471" class="cls-1" d="M0 0h24v24H0z"/>
        <path id="Rectangle_2472" data-name="Rectangle 2472" class="cls-1" d="M0 0h24v24H0z"/>
    </g>
    <g id="Group_6108" data-name="Group 6108">
        <g id="Group_6107" data-name="Group 6107">
            <path id="Path_2296" data-name="Path 2296" class="cls-2" d="M14 4.5V9h1V4a1 1 0 0 0-1-1H8a1 1 0 0 0-1 1v4H3a1 1 0 0 0-1 1v12h1V9.5a.5.5 0 0 1 .5-.5h4a.5.5 0 0 0 .5-.5v-4a.5.5 0 0 1 .5-.5h5a.5.5 0 0 1 .5.5z"/>
            <path id="Rectangle_2473" data-name="Rectangle 2473" class="cls-2" transform="translate(5 11)" d="M0 0h2v2H0z"/>
            <path id="Rectangle_2474" data-name="Rectangle 2474" class="cls-2" transform="translate(10 5)" d="M0 0h2v2H0z"/>
            <path id="Rectangle_2475" data-name="Rectangle 2475" class="cls-2" transform="translate(5 15)" d="M0 0h2v2H0z"/>
            <path id="Rectangle_2476" data-name="Rectangle 2476" class="cls-2" transform="translate(5 19)" d="M0 0h2v2H0z"/>
        </g>
    </g>
    <path id="Path_2301" data-name="Path 2301" d="M19.43 18.02a3.908 3.908 0 0 0 .48-2.82 4 4 0 1 0-4.72 4.72 3.908 3.908 0 0 0 2.82-.48l1.86 1.86a1 1 0 0 0 1.41 0 1 1 0 0 0 0-1.41zM16 18a2 2 0 1 1 2-2 2.006 2.006 0 0 1-2 2z" transform="translate(-2)"/>
</svg>
