<svg id="work_outline-24px" xmlns="http://www.w3.org/2000/svg" width="24" height="24" viewBox="0 0 24 24">
  <defs>
    <style>
      .cls-1 {
        fill: none;
      }

      .cls-2 {
        fill: #1481de;
      }
    </style>
  </defs>
  <path id="Path_2299" data-name="Path 2299" class="cls-1" d="M0,0H24V24H0Z"/>
  <path id="Path_2300" data-name="Path 2300" class="cls-2" d="M14,6V4H10V6ZM4,9v9a1,1,0,0,0,1,1H19a1,1,0,0,0,1-1V9a1,1,0,0,0-1-1H5A1,1,0,0,0,4,9ZM20,6a1.993,1.993,0,0,1,2,2V19a1.993,1.993,0,0,1-2,2H4a1.993,1.993,0,0,1-2-2L2.01,8A1.985,1.985,0,0,1,4,6H8V4a1.993,1.993,0,0,1,2-2h4a1.993,1.993,0,0,1,2,2V6Z"/>
</svg>
