<svg data-name="Group 9596" xmlns="http://www.w3.org/2000/svg" width="17" height="20" viewBox="0 0 17 20">
    <defs>
        <clipPath id="ybvxaa2bna">
            <path data-name="Rectangle 3292" style="fill:none" d="M0 0h17v20H0z"/>
        </clipPath>
    </defs>
    <g data-name="Group 9595" style="clip-path:url(#ybvxaa2bna)">
        <path data-name="Path 3004" d="M8.5 12.5a.833.833 0 0 0-.833.833V15a.834.834 0 0 0 1.667 0v-1.667A.833.833 0 0 0 8.5 12.5" style="fill:#040504"/>
        <path data-name="Path 3005" d="M14.5 8.33H4.17V5c0-1.84 2.49-3.33 4.33-3.33a4.8 4.8 0 0 1 4.19 2.58 1.084 1.084 0 0 0 .08.19.817.817 0 0 0 1.46 0 .756.756 0 0 0 .1-.39.711.711 0 0 0-.07-.32A6.436 6.436 0 0 0 8.5 0c-2.76 0-6 2.24-6 5v3.33a2.5 2.5 0 0 0-2.5 2.5v6.67A2.5 2.5 0 0 0 2.5 20h12a2.5 2.5 0 0 0 2.5-2.5v-6.67a2.5 2.5 0 0 0-2.5-2.5m.84 9.17a.837.837 0 0 1-.84.83h-12a.828.828 0 0 1-.83-.83v-6.67A.828.828 0 0 1 2.5 10h12a.837.837 0 0 1 .84.83z" style="fill:#040504"/>
    </g>
</svg>
